<svg width="183" height="61" viewBox="0 0 183 61" fill="none" xmlns="http://www.w3.org/2000/svg">
<path d="M10.1412 12.6364V49H3.71369V12.6364H10.1412ZM34.1336 37.5298V21.7273H40.5612V49H34.3289V44.1527H34.0448C33.4293 45.6797 32.4172 46.9285 31.0086 47.8991C29.6118 48.8698 27.8895 49.3551 25.8417 49.3551C24.0543 49.3551 22.474 48.9586 21.1009 48.1655C19.7397 47.3606 18.6743 46.1946 17.9049 44.6676C17.1355 43.1288 16.7508 41.2704 16.7508 39.0923V21.7273H23.1784V38.098C23.1784 39.8262 23.6518 41.1993 24.5988 42.2173C25.5458 43.2353 26.7887 43.7443 28.3275 43.7443C29.2745 43.7443 30.1919 43.5135 31.0796 43.0518C31.9674 42.5902 32.6954 41.9036 33.2636 40.9922C33.8436 40.0689 34.1336 38.9148 34.1336 37.5298ZM57.2915 49.4794C55.1489 49.4794 53.2313 48.929 51.5386 47.8281C49.8459 46.7273 48.5083 45.1293 47.5258 43.0341C46.5434 40.9389 46.0521 38.3939 46.0521 35.3991C46.0521 32.3688 46.5493 29.812 47.5436 27.7287C48.5497 25.6335 49.9051 24.0533 51.6096 22.9879C53.3142 21.9107 55.214 21.3722 57.3092 21.3722C58.9072 21.3722 60.2211 21.6444 61.251 22.1889C62.2808 22.7216 63.0976 23.3667 63.7013 24.1243C64.305 24.87 64.7725 25.5743 65.104 26.2372H65.3703V12.6364H71.8156V49H65.4946V44.7031H65.104C64.7725 45.366 64.2931 46.0703 63.6657 46.8161C63.0384 47.55 62.2098 48.1773 61.18 48.6982C60.1501 49.219 58.854 49.4794 57.2915 49.4794ZM59.0848 44.206C60.4461 44.206 61.6061 43.839 62.5649 43.1051C63.5237 42.3594 64.2517 41.3236 64.7488 39.9979C65.246 38.6721 65.4946 37.1274 65.4946 35.3636C65.4946 33.5999 65.246 32.067 64.7488 30.7649C64.2635 29.4628 63.5415 28.4508 62.5827 27.7287C61.6357 27.0066 60.4697 26.6456 59.0848 26.6456C57.6525 26.6456 56.4569 27.0185 55.4981 27.7642C54.5393 28.5099 53.8173 29.5398 53.3319 30.8537C52.8466 32.1676 52.604 33.6709 52.604 35.3636C52.604 37.0682 52.8466 38.5893 53.3319 39.9268C53.8291 41.2526 54.5571 42.3002 55.5159 43.0696C56.4865 43.8272 57.6762 44.206 59.0848 44.206ZM90.5612 49.5327C87.8978 49.5327 85.5896 48.9467 83.6365 47.7749C81.6833 46.603 80.1682 44.9635 79.091 42.8565C78.0257 40.7495 77.493 38.2874 77.493 35.4702C77.493 32.6529 78.0257 30.1849 79.091 28.0661C80.1682 25.9472 81.6833 24.3018 83.6365 23.13C85.5896 21.9581 87.8978 21.3722 90.5612 21.3722C93.2245 21.3722 95.5328 21.9581 97.4859 23.13C99.439 24.3018 100.948 25.9472 102.014 28.0661C103.091 30.1849 103.629 32.6529 103.629 35.4702C103.629 38.2874 103.091 40.7495 102.014 42.8565C100.948 44.9635 99.439 46.603 97.4859 47.7749C95.5328 48.9467 93.2245 49.5327 90.5612 49.5327ZM90.5967 44.3835C92.0408 44.3835 93.2482 43.987 94.2188 43.1939C95.1895 42.389 95.9115 41.3118 96.385 39.9624C96.8704 38.6129 97.113 37.1096 97.113 35.4524C97.113 33.7834 96.8704 32.2741 96.385 30.9247C95.9115 29.5634 95.1895 28.4804 94.2188 27.6754C93.2482 26.8705 92.0408 26.468 90.5967 26.468C89.117 26.468 87.886 26.8705 86.9035 27.6754C85.9329 28.4804 85.2049 29.5634 84.7195 30.9247C84.2461 32.2741 84.0093 33.7834 84.0093 35.4524C84.0093 37.1096 84.2461 38.6129 84.7195 39.9624C85.2049 41.3118 85.9329 42.389 86.9035 43.1939C87.886 43.987 89.117 44.3835 90.5967 44.3835ZM118.069 12.6364V49H108.268V12.6364H118.069ZM140.748 37.0682V21.7273H150.549V49H141.245V43.8153H140.961C140.369 45.5554 139.333 46.9167 137.853 47.8991C136.374 48.8698 134.616 49.3551 132.58 49.3551C130.674 49.3551 129.005 48.9171 127.573 48.0412C126.152 47.1652 125.046 45.9579 124.253 44.419C123.471 42.8802 123.075 41.1165 123.063 39.1278V21.7273H132.864V37.0682C132.876 38.4176 133.219 39.477 133.894 40.2464C134.58 41.0159 135.539 41.4006 136.77 41.4006C137.587 41.4006 138.291 41.2289 138.883 40.8857C139.487 40.5305 139.949 40.0334 140.268 39.3942C140.6 38.7431 140.759 37.9678 140.748 37.0682ZM163.133 49.4261C161.393 49.4261 159.854 49.142 158.517 48.5739C157.191 47.9938 156.149 47.1179 155.392 45.946C154.634 44.7741 154.255 43.2827 154.255 41.4716C154.255 39.9801 154.51 38.7076 155.019 37.6541C155.528 36.5888 156.238 35.7188 157.149 35.044C158.061 34.3693 159.12 33.8544 160.328 33.4993C161.547 33.1442 162.861 32.9134 164.269 32.8068C165.796 32.6884 167.022 32.5464 167.945 32.3807C168.88 32.2031 169.555 31.9605 169.969 31.6527C170.383 31.3331 170.59 30.9129 170.59 30.392V30.321C170.59 29.6108 170.318 29.0663 169.774 28.6875C169.229 28.3087 168.531 28.1193 167.679 28.1193C166.743 28.1193 165.98 28.3265 165.388 28.7408C164.808 29.1432 164.459 29.7647 164.34 30.6051H155.321C155.439 28.9479 155.966 27.4209 156.901 26.0241C157.848 24.6155 159.227 23.491 161.038 22.6506C162.849 21.7983 165.11 21.3722 167.821 21.3722C169.774 21.3722 171.526 21.603 173.076 22.0646C174.627 22.5144 175.947 23.1477 177.036 23.9645C178.125 24.7694 178.953 25.7164 179.522 26.8054C180.102 27.8826 180.392 29.0545 180.392 30.321V49H171.23V45.1648H171.017C170.472 46.1828 169.809 47.0054 169.028 47.6328C168.259 48.2602 167.377 48.7159 166.382 49C165.4 49.2841 164.317 49.4261 163.133 49.4261ZM166.329 43.2472C167.075 43.2472 167.773 43.0933 168.424 42.7855C169.087 42.4777 169.626 42.0339 170.04 41.4538C170.454 40.8738 170.661 40.1695 170.661 39.3409V37.0682C170.401 37.1747 170.123 37.2753 169.827 37.37C169.543 37.4647 169.235 37.5535 168.904 37.6364C168.584 37.7192 168.241 37.7962 167.874 37.8672C167.519 37.9382 167.146 38.0033 166.755 38.0625C165.998 38.1809 165.376 38.3762 164.891 38.6484C164.417 38.9089 164.062 39.2344 163.826 39.625C163.601 40.0038 163.488 40.4299 163.488 40.9034C163.488 41.661 163.755 42.241 164.287 42.6435C164.82 43.0459 165.501 43.2472 166.329 43.2472Z" fill="#EEEEEE"/>
</svg>
