<svg width="212" height="210" viewBox="0 0 212 210" fill="none" xmlns="http://www.w3.org/2000/svg">
<path d="M23.5595 73.1413C27.05 53.164 46.3378 39.6036 66.3628 42.809C86.6375 46.0544 100.436 65.1184 96.9019 85.3448L90.6606 121.066L53.498 115.117C33.4729 111.912 20.069 93.1187 23.5595 73.1413Z" fill="#EEEEEE"/>
<path d="M95.533 54.2859C99.067 34.0595 118.595 20.3301 138.87 23.5754C158.895 26.7809 172.523 45.6102 169.033 65.5875C165.542 85.5649 146.479 99.1612 126.454 95.9558L89.2917 90.0071L95.533 54.2859Z" fill="#EEEEEE"/>
<path d="M42.5046 143.846C45.9951 123.868 65.0582 110.272 85.0833 113.477L122.246 119.426L116.005 155.147C112.471 175.374 92.9424 189.103 72.6677 185.858C52.6426 182.652 39.0141 163.823 42.5046 143.846Z" fill="#EEEEEE"/>
<path d="M120.877 88.3671L158.04 94.3157C178.065 97.5211 191.469 116.314 187.978 136.292C184.488 156.269 165.2 169.83 145.175 166.624C124.9 163.379 111.102 144.315 114.636 124.088L120.877 88.3671Z" fill="#EEEEEE"/>
<ellipse cx="106.012" cy="104.854" rx="22.7512" ry="22.3255" transform="rotate(-15 106.012 104.854)" fill="#1E1E1E"/>
</svg>
