<svg width="48" height="48" viewBox="0 0 48 48" fill="none" xmlns="http://www.w3.org/2000/svg">
<g clip-path="url(#clip0_220_39)">
<path fill-rule="evenodd" clip-rule="evenodd" d="M36.75 0H11.25C5.0368 0 0 5.0368 0 11.25V36.75C0 42.9632 5.0368 48 11.25 48H36.75C42.9632 48 48 42.9632 48 36.75V11.25C48 5.0368 42.9632 0 36.75 0ZM10.0786 19.2471L10.6154 25.2362L23.9972 25.2362L24.018 25.2362L31.3721 25.2362L30.6769 33.0036L23.9972 34.8066V34.8069L23.9916 34.8084L17.3215 33.0075L16.8951 28.2307H13.6539H10.883L11.722 37.6346L23.9902 41.0404L24.0178 41.0327V41.0317L36.2753 37.6346L36.3652 36.6227L37.7726 20.8554L37.9187 19.2471L39 7.125H24.0178H23.9972H9L9.54443 13.1142H23.9972H24.0178H32.4364L31.8915 19.2471L24.018 19.2471L23.9972 19.2471L10.0786 19.2471Z" fill="#F8EBEB"/>
</g>
<defs>
<clipPath id="clip0_220_39">
<rect width="48" height="48" fill="white"/>
</clipPath>
</defs>
</svg>
