<svg width="48" height="48" viewBox="0 0 48 48" fill="none" xmlns="http://www.w3.org/2000/svg">
<g clip-path="url(#clip0_220_65)">
<path fill-rule="evenodd" clip-rule="evenodd" d="M11.25 0H36.75C42.9632 0 48 5.0368 48 11.25V36.75C48 42.9632 42.9632 48 36.75 48H11.25C5.0368 48 0 42.9632 0 36.75V11.25C0 5.0368 5.0368 0 11.25 0ZM17.69 5.25C14.24 5.25 11.44 8.04999 11.44 11.5C11.44 14.95 14.24 17.75 17.69 17.75C14.24 17.75 11.44 20.55 11.44 24C11.44 27.45 14.24 30.2499 17.69 30.2499C14.24 30.2499 11.44 33.0501 11.44 36.5001C11.44 39.9501 14.24 42.75 17.69 42.75C21.1401 42.75 23.94 39.9501 23.94 36.5001V30.2499V24C23.94 27.45 26.7399 30.2499 30.1899 30.2499C33.6399 30.2499 36.4401 27.45 36.4401 24C36.4401 20.55 33.6399 17.75 30.1899 17.75C33.6399 17.75 36.4401 14.95 36.4401 11.5C36.4401 8.04999 33.6399 5.25 30.1899 5.25H23.94H17.69ZM30.1899 17.75C26.7399 17.75 23.94 20.55 23.94 24V17.75H30.1899Z" fill="#F8EBEB"/>
</g>
<defs>
<clipPath id="clip0_220_65">
<rect width="48" height="48" fill="white"/>
</clipPath>
</defs>
</svg>
