<svg width="48" height="48" viewBox="0 0 48 48" fill="none" xmlns="http://www.w3.org/2000/svg">
<g clip-path="url(#clip0_220_104)">
<path fill-rule="evenodd" clip-rule="evenodd" d="M11.25 0H36.75C42.9632 0 48 5.0368 48 11.25V36.75C48 42.9632 42.9632 48 36.75 48H11.25C5.0368 48 0 42.9632 0 36.75V11.25C0 5.0368 5.0368 0 11.25 0ZM25.6699 5.95783L42.0422 22.3301V22.3418C42.2667 22.566 42.4448 22.8323 42.5663 23.1253C42.6878 23.4184 42.7502 23.7326 42.7502 24.0499C42.7502 24.3671 42.6878 24.6812 42.5663 24.9743C42.4448 25.2673 42.2667 25.5336 42.0422 25.7578L25.7449 42.0293C25.5209 42.2535 25.2546 42.4315 24.9617 42.553C24.6687 42.6743 24.3546 42.7367 24.0375 42.7367C23.7205 42.7367 23.4064 42.6743 23.1134 42.553C22.8205 42.4315 22.5542 42.2535 22.3302 42.0293L5.95667 25.6583C5.73221 25.434 5.55415 25.1678 5.43265 24.8747C5.31115 24.5816 5.24861 24.2674 5.24861 23.9501C5.24861 23.6329 5.31115 23.3188 5.43265 23.0258C5.55415 22.7327 5.73221 22.4665 5.95667 22.2422L17.1832 11.0274L21.4371 15.2789C21.2166 15.8048 21.1577 16.3845 21.2678 16.9441C21.378 17.5036 21.6523 18.0177 22.0559 18.4207C22.3335 18.6996 22.6547 18.9069 22.9969 19.0476V29.3438C22.6418 29.4844 22.3335 29.6942 22.0559 29.9708C21.7887 30.2374 21.5768 30.5541 21.4322 30.9028C21.2875 31.2516 21.213 31.6253 21.213 32.0027C21.213 32.3801 21.2875 32.754 21.4322 33.1028C21.5768 33.4513 21.7887 33.768 22.0559 34.0348C22.3227 34.3016 22.6395 34.5133 22.9883 34.6577C23.3369 34.8021 23.7105 34.8765 24.088 34.8765C24.4652 34.8765 24.8389 34.8021 25.1877 34.6577C25.5362 34.5133 25.8531 34.3016 26.1199 34.0348C26.3867 33.768 26.5984 33.4511 26.743 33.1024C26.8874 32.7538 26.9616 32.3801 26.9616 32.0027C26.9616 31.6253 26.8874 31.2516 26.743 30.903C26.5984 30.5543 26.3867 30.2376 26.1199 29.9708C25.8968 29.7499 25.6397 29.5661 25.3583 29.427V19.2257L29.2349 23.1023C28.8083 24.1418 29.0168 25.3839 29.8605 26.2277C30.1273 26.4947 30.4442 26.7064 30.793 26.851C31.1415 26.9953 31.5154 27.0698 31.8929 27.0698C32.2703 27.0699 32.644 26.9957 32.9927 26.8511C33.3415 26.7068 33.6584 26.4953 33.9252 26.2283C34.1922 25.9615 34.4039 25.6446 34.5484 25.296C34.693 24.9473 34.7672 24.5736 34.7674 24.1961C34.7674 23.8187 34.6932 23.445 34.5488 23.0963C34.4044 22.7475 34.1927 22.4306 33.9257 22.1636C33.123 21.3585 31.963 21.1348 30.9574 21.4817L26.8007 17.325C26.9772 16.8162 27.0068 16.268 26.8864 15.7431C26.766 15.2182 26.5004 14.7378 26.1199 14.3566C25.3208 13.5574 24.1724 13.3172 23.1692 13.6688L18.8567 9.35626L22.2552 5.95783C22.4792 5.73352 22.7455 5.5556 23.0384 5.43421C23.3314 5.31281 23.6455 5.25033 23.9625 5.25033C24.2796 5.25033 24.5937 5.31281 24.8867 5.43421C25.1796 5.5556 25.4459 5.73352 25.6699 5.95783Z" fill="#F8EBEB"/>
</g>
<defs>
<clipPath id="clip0_220_104">
<rect width="48" height="48" fill="white"/>
</clipPath>
</defs>
</svg>
