<svg width="48" height="48" viewBox="0 0 48 48" fill="none" xmlns="http://www.w3.org/2000/svg">
<g clip-path="url(#clip0_220_32)">
<path fill-rule="evenodd" clip-rule="evenodd" d="M11.25 0H36.75C42.9632 0 48 5.0368 48 11.25V36.75C48 42.9632 42.9632 48 36.75 48H11.25C5.0368 48 0 42.9632 0 36.75V11.25C0 5.0368 5.0368 0 11.25 0ZM10.6143 25.2362L9 7.125H24H39L38.4636 13.1147H38.4452L24 13.1146L15.5439 13.1147L16.092 19.2478L24 19.2478L37.9207 19.2478L36.2739 37.6343L23.9908 41.0415L11.7232 37.6343L10.8635 28.0191H16.8752L17.3212 33.0069L23.9923 34.8114L24 34.8088V34.8094L30.6759 33.0043L31.3725 25.2362H24H10.6143Z" fill="#F8EBEB"/>
</g>
<defs>
<clipPath id="clip0_220_32">
<rect width="48" height="48" fill="white"/>
</clipPath>
</defs>
</svg>
