<svg width="48" height="48" viewBox="0 0 48 48" fill="none" xmlns="http://www.w3.org/2000/svg">
<g clip-path="url(#clip0_220_26)">
<path fill-rule="evenodd" clip-rule="evenodd" d="M36.75 0H11.25C5.0368 0 0 5.0368 0 11.25V36.75C0 42.9632 5.0368 48 11.25 48H36.75C42.9632 48 48 42.9632 48 36.75V11.25C48 5.0368 42.9632 0 36.75 0ZM12.6209 40.1123L12.621 40.1122C13.6843 42.3675 15.7789 44.2361 19.3871 44.2361C23.3827 44.2361 26.1214 42.1095 26.1214 37.4376V22.0367H21.6105V37.3738C21.6105 39.6291 20.676 40.2088 19.1938 40.2088C17.6475 40.2088 17.0029 39.1457 16.2943 37.8893L12.621 40.1122L12.6209 40.1119L12.6209 40.1123ZM32.2442 37.5024L28.5714 39.6289C29.8924 42.2389 32.5989 44.2365 36.7875 44.2365C41.0728 44.2365 44.2626 42.0135 44.2626 37.9534C44.2626 34.1837 42.1037 32.5086 38.2695 30.8651L37.1419 30.3819C35.2088 29.544 34.371 28.9961 34.371 27.6429C34.371 26.5476 35.2088 25.7098 36.5299 25.7098C37.8188 25.7098 38.6561 26.2575 39.4296 27.6429L42.9416 25.3875C41.4596 22.7777 39.3975 21.7787 36.5299 21.7787C32.5022 21.7787 29.9244 24.3564 29.9244 27.7397C29.9244 31.4128 32.0833 33.1528 35.3378 34.5381L36.4652 35.0216C38.5273 35.9235 39.7517 36.4714 39.7517 38.0179C39.7517 39.3067 38.5599 40.2412 36.6908 40.2412C34.4678 40.2412 33.2111 39.0814 32.2442 37.5024Z" fill="#F8EBEB"/>
</g>
<defs>
<clipPath id="clip0_220_26">
<rect width="48" height="48" fill="white"/>
</clipPath>
</defs>
</svg>
