<svg width="48" height="48" viewBox="0 0 48 48" fill="none" xmlns="http://www.w3.org/2000/svg">
<g clip-path="url(#clip0_220_120)">
<path fill-rule="evenodd" clip-rule="evenodd" d="M36.75 0H11.25C5.0368 0 0 5.0368 0 11.25V36.75C0 42.9632 5.0368 48 11.25 48H36.75C42.9632 48 48 42.9632 48 36.75V11.25C48 5.0368 42.9632 0 36.75 0ZM34.1797 20.2551L34.1796 20.255C32.7976 18.3601 31.6861 16.8359 31.0359 14.1701C30.6284 12.499 30.7043 11.9345 30.7776 11.39C30.8455 10.8853 30.911 10.3979 30.5873 9.06276C30.2507 7.61938 29.6897 6.62012 29.1289 5.84291C28.4558 5.06571 27.6705 4.62159 27.2216 4.51056C26.2121 3.95542 23.8562 3.06718 20.9394 4.62159C17.967 6.14698 18.2356 9.38308 18.7768 15.9038L18.8079 16.2796C18.8079 16.7238 18.6957 17.2789 18.4714 17.723C18.0388 18.6863 17.2935 19.5463 16.6374 20.3033L16.5642 20.3878C15.7789 21.498 14.9936 22.6084 14.4327 23.8296C13.0865 26.3833 11.8525 29.6031 12.1891 30.8244C12.2045 30.8214 12.2248 30.8265 12.2497 30.8392C12.035 30.9769 11.8446 31.1653 11.6281 31.3796C11.4606 31.5453 11.2932 31.7884 11.1082 32.0569C10.7975 32.5078 10.4376 33.0302 9.94538 33.3782C9.63533 33.6338 9.06345 33.7482 8.49288 33.8622C7.82477 33.9958 7.15845 34.129 6.91641 34.4884C6.67901 34.8408 6.81838 35.2865 7.00232 35.8747C7.16607 36.3983 7.36515 37.035 7.36515 37.8193C7.36515 38.2262 7.15589 38.5502 6.96743 38.842C6.84734 39.028 6.73571 39.2008 6.69204 39.3737C6.67907 39.4379 6.6661 39.4991 6.65364 39.5579C6.55841 40.0074 6.49361 40.3132 6.69204 40.7061C7.14077 41.3722 7.70169 41.5942 11.5159 42.3714C12.5084 42.5898 13.4738 42.969 14.3455 43.3114C15.2474 43.6656 16.0489 43.9805 16.6764 44.037C17.8343 44.1412 19.7825 44.0498 20.0183 41.5613C20.6863 41.4833 22.3598 41.4833 23.856 41.4833H23.8562C24.0369 41.4747 24.2116 41.4662 24.3811 41.458L24.3867 41.4577L24.3887 41.4576L24.3894 41.4576C26.3103 41.3639 27.5595 41.303 29.1715 41.6403C29.2755 42.4569 29.5597 42.9967 29.9141 43.2596C30.2507 43.5928 30.8115 43.8148 32.0456 43.8148C33.2796 43.8148 34.0648 43.3708 34.8503 42.5934C35.2286 42.2191 35.5558 41.9961 36.2109 41.5499C36.527 41.3346 36.9193 41.0674 37.4304 40.7061C37.937 40.387 38.5571 40.0305 39.1354 39.698L39.1354 39.6979L39.1355 39.6979L39.1356 39.6979C39.9658 39.2205 40.7097 38.7928 40.908 38.5965C40.952 38.553 41.0002 38.5138 41.0495 38.4738L41.0495 38.4737C41.2514 38.3096 41.469 38.1328 41.469 37.5971C41.469 37.0421 41.0203 36.8199 40.6838 36.7089L40.6453 36.69L40.5874 36.6618C40.1285 36.4384 39.4037 36.0856 38.7765 35.1546C38.6333 34.9182 38.5714 34.5007 38.5042 34.0478C38.4136 33.4368 38.3134 32.7614 37.9912 32.3788C37.8671 32.2151 37.7277 32.1419 37.5956 32.1148L37.6159 32.057L37.616 32.0568L37.616 32.0568C37.759 31.6504 37.9912 30.9902 37.9912 30.7134C38.7767 28.1597 36.8694 24.0517 35.0745 21.498C34.7659 21.0589 34.4673 20.6494 34.1803 20.2559L34.1797 20.2551ZM32.1581 32.1572C32.193 32.1917 32.2252 32.2263 32.2547 32.2613C32.2222 32.2279 32.1899 32.1932 32.1581 32.1572ZM32.1577 32.1568C32.1577 32.0458 32.0456 32.0458 32.0456 32.0458C32.3654 31.7292 32.8877 31.4128 33.8052 31.4773C34.1228 30.9307 34.9524 29.1745 34.8503 27.0495C34.7379 24.1628 31.5969 22.7194 31.5969 22.7194C36.7573 26.6053 32.3822 31.2686 32.1577 31.2686C32.2699 30.7134 32.2699 30.1582 32.2699 29.8252C32.2699 28.1597 32.0456 26.4943 31.7091 25.2729C31.4848 24.5331 31.1608 23.8918 30.8368 23.2506C30.6747 22.9296 30.5125 22.6086 30.3628 22.2752C29.4654 20.1656 27.8948 16.1686 27.7826 15.7245C27.7805 15.7187 27.7782 15.713 27.7758 15.7074C27.6371 16.2109 27.3513 16.4376 26.5485 16.8348C26.2442 16.9208 25.8389 17.1569 25.3979 17.4138C24.7005 17.8199 23.9137 18.2782 23.2952 18.2782H23.2952C22.8465 18.2782 22.1734 18.2782 21.7247 18.1671C21.3881 18.0561 20.8271 17.501 20.2663 16.9458C20.1391 16.8619 20.0158 16.7779 19.8997 16.6925C19.8937 16.7727 19.8873 16.8549 19.8807 16.9388C19.8506 17.3247 19.8176 17.7459 19.8176 18.1671C19.7053 19.9436 18.0226 22.8304 17.3495 23.6076C16.6764 24.3847 16.1155 25.8281 15.779 26.8275C15.3302 28.2709 15.218 29.7143 15.218 29.7143C14.2084 28.2709 16.1155 23.6076 16.1155 23.6076C16.1155 23.6076 15.5546 24.4958 15.3302 24.9399C14.7693 26.0501 14.3206 27.0495 14.2084 28.2709C14.0962 29.1591 14.2084 29.8253 14.4327 30.3803C14.4792 30.4263 14.5256 30.4912 14.5799 30.5673L14.5799 30.5673L14.5799 30.5674L14.58 30.5674C14.657 30.6752 14.7499 30.8053 14.8815 30.9354L15.779 31.8238C16.0781 32.1198 16.3773 32.3666 16.7761 32.6956L16.7762 32.6956C16.9756 32.8601 17.2 33.0452 17.4617 33.2672C17.7501 33.5117 18.1594 33.8312 18.5732 34.154L18.5732 34.1541C19.2862 34.7104 20.0122 35.2769 20.1542 35.4878C20.3784 35.8208 20.6029 36.3759 20.2663 36.9311C20.1542 37.1531 19.8176 37.2641 19.4811 37.3751C19.3688 37.4861 19.1445 37.4861 19.0322 37.4861C20.3784 39.1517 23.1831 39.7067 24.8659 39.3737C26.6301 39.0656 28.4905 38.0923 29.6474 37.1571C29.6619 37.0475 29.676 36.9352 29.6897 36.8199C29.8018 36.0428 29.8018 35.0436 29.8018 34.1554V34.1554C29.8018 33.045 29.8018 32.712 30.0262 32.2678C30.2507 31.8236 30.4749 31.6016 31.0359 31.6016C31.5965 31.6016 31.933 31.9345 32.1574 32.1565L32.1577 32.1568Z" fill="#F8EBEB"/>
</g>
<defs>
<clipPath id="clip0_220_120">
<rect width="48" height="48" fill="white"/>
</clipPath>
</defs>
</svg>
