<svg width="48" height="48" viewBox="0 0 48 48" fill="none" xmlns="http://www.w3.org/2000/svg">
<path fill-rule="evenodd" clip-rule="evenodd" d="M11.25 0H36.75C42.9632 0 48 5.0368 48 11.25V36.75C48 42.9632 42.9632 48 36.75 48H11.25C5.0368 48 0 42.9632 0 36.75V11.25C0 5.0368 5.0368 0 11.25 0ZM24.8484 7.3239C24.8824 7.38165 24.9167 7.43922 24.9514 7.49659C25.1868 7.86455 25.5765 8.26662 26.0617 8.76721C27.7407 10.4996 30.5632 13.4118 32.0949 20.1733H32.0987C32.4033 21.961 32.4598 23.645 32.3275 25.2147C31.7992 31.5343 28.2074 35.9974 25.4196 37.9257C25.0518 39.5165 24.7775 41.1273 24.5977 42.75H23.8442C23.6312 40.4454 23.328 38.2699 23.328 38.2699L23.3282 38.2693L23.3241 38.2673C22.3693 37.6787 15.1417 31.9856 15.5818 22.7528C16.0364 13.2217 21.2524 8.62771 22.8211 7.24608C22.8822 7.19225 22.9378 7.1433 22.9873 7.09912C23.6454 6.51201 23.7474 6.02423 23.8029 5.25C23.8332 5.32073 23.8639 5.39126 23.8951 5.46159L23.8918 5.44614C23.9947 5.68269 24.1029 5.91685 24.2162 6.14845C24.4128 6.5476 24.6236 6.93967 24.8484 7.3239Z" fill="#F8EBEB"/>
</svg>
