<svg width="48" height="48" viewBox="0 0 48 48" fill="none" xmlns="http://www.w3.org/2000/svg">
<path fill-rule="evenodd" clip-rule="evenodd" d="M11.25 0H36.75C42.9632 0 48 5.0368 48 11.25V36.75C48 42.9632 42.9632 48 36.75 48H11.25C5.0368 48 0 42.9632 0 36.75V11.25C0 5.0368 5.0368 0 11.25 0ZM32.3275 25.2147C32.4598 23.6449 32.4033 21.9609 32.0987 20.1733H32.0949C30.5632 13.4118 27.7407 10.4996 26.0617 8.76721C25.5765 8.26662 25.1868 7.86455 24.9514 7.49659C24.9167 7.43922 24.8824 7.38165 24.8484 7.3239C24.6236 6.93967 24.4128 6.5476 24.2162 6.14845C24.1029 5.91685 23.9947 5.68269 23.8918 5.44614C23.8929 5.45122 23.894 5.45637 23.8951 5.46159C23.8639 5.39126 23.8332 5.32073 23.8029 5.25C23.7474 6.02423 23.6454 6.51201 22.9873 7.09912C22.9378 7.1433 22.8822 7.19225 22.8211 7.24608C21.2524 8.62771 16.0364 13.2217 15.5818 22.7528C15.1417 31.9856 22.3693 37.6787 23.3241 38.2673L23.3282 38.2693L23.328 38.2699C23.328 38.2699 23.6312 40.4454 23.8442 42.75H24.5977C24.7775 41.1273 25.0518 39.5165 25.4196 37.9257C28.2074 35.9974 31.7992 31.5343 32.3275 25.2147Z" fill="#F8EBEB"/>
</svg>
