<svg width="48" height="48" viewBox="0 0 48 48" fill="none" xmlns="http://www.w3.org/2000/svg">
<g clip-path="url(#clip0_220_47)">
<path fill-rule="evenodd" clip-rule="evenodd" d="M11.25 0H36.75C42.9632 0 48 5.0368 48 11.25V36.75C48 42.9632 42.9632 48 36.75 48H11.25C5.0368 48 0 42.9632 0 36.75V11.25C0 5.0368 5.0368 0 11.25 0ZM24 13.875C19.5002 13.875 16.6873 16.1252 15.5625 20.625C17.25 18.3748 19.2186 17.5311 21.4688 18.0938C22.7525 18.4147 23.6701 19.346 24.6857 20.377C26.3402 22.0563 28.255 24 32.4375 24C36.9373 24 39.7502 21.7498 40.875 17.25C39.1875 19.5002 37.2189 20.3439 34.9688 19.7812C33.685 19.4603 32.7674 18.529 31.7518 17.498C30.0973 15.8187 28.1825 13.875 24 13.875ZM15.5625 24C11.0627 24 8.24983 26.2502 7.125 30.75C8.8125 28.4998 10.7811 27.6561 13.0312 28.2188C14.315 28.5397 15.2326 29.471 16.2482 30.502C17.9027 32.1813 19.8175 34.125 24 34.125C28.4998 34.125 31.3127 31.8748 32.4375 27.375C30.75 29.6252 28.7814 30.4689 26.5312 29.9062C25.2475 29.5853 24.3299 28.654 23.3143 27.623C21.6598 25.9437 19.745 24 15.5625 24Z" fill="#F8EBEB"/>
</g>
<defs>
<clipPath id="clip0_220_47">
<rect width="48" height="48" fill="white"/>
</clipPath>
</defs>
</svg>
